# Blender v2.79 (sub 0) OBJ File: ''
# www.blender.org
mtllib table.mtl
o Cube_001_Cube.002
v 0.690776 -3.244245 -1.066811
v 0.690776 -1.244245 -1.066811
v 0.690776 -3.244245 -1.327331
v 0.690776 -1.244245 -1.327331
v 0.931796 -3.244245 -1.066811
v 0.931796 -1.244245 -1.066811
v 0.931796 -3.244245 -1.327331
v 0.931796 -1.244245 -1.327331
vt 1.000000 0.000000
vt 0.000000 1.000000
vt 0.000000 0.000000
vt 1.000000 0.000000
vt 0.000000 1.000000
vt 0.000000 0.000000
vt 1.000000 0.000000
vt 0.000000 1.000000
vt 0.000000 0.000000
vt 1.000000 0.000000
vt 0.000000 1.000000
vt 0.000000 0.000000
vt 1.000000 0.000000
vt 0.000000 1.000000
vt 0.000000 0.000000
vt 1.000000 1.000000
vt 1.000000 1.000000
vt 1.000000 1.000000
vt 1.000000 1.000000
vt 1.000000 1.000000
vn -1.0000 0.0000 0.0000
vn 0.0000 0.0000 -1.0000
vn 1.0000 0.0000 0.0000
vn 0.0000 0.0000 1.0000
vn 0.0000 -1.0000 0.0000
vn 0.0000 1.0000 0.0000
g Cube_001_Cube.002_wood_jpg
usemtl wood_jpg
s off
f 2/1/1 3/2/1 1/3/1
f 4/4/2 7/5/2 3/6/2
f 8/7/3 5/8/3 7/9/3
f 6/10/4 1/11/4 5/12/4
f 7/13/5 1/11/5 3/6/5
f 4/4/6 6/14/6 8/15/6
f 2/1/1 4/16/1 3/2/1
f 4/4/2 8/17/2 7/5/2
f 8/7/3 6/18/3 5/8/3
f 6/10/4 2/19/4 1/11/4
f 7/13/5 5/20/5 1/11/5
f 4/4/6 2/19/6 6/14/6
o Cube_Cube.001
v -1.064058 -1.301824 2.244479
v -1.064058 -1.228816 2.244479
v -1.064058 -1.301824 -1.339589
v -1.064058 -1.228816 -1.339589
v 0.935942 -1.301824 2.244479
v 0.935942 -1.228816 2.244479
v 0.935942 -1.301824 -1.339589
v 0.935942 -1.228816 -1.339589
vt 1.000000 0.000000
vt 0.000000 1.000000
vt 0.000000 0.000000
vt 1.000000 0.000000
vt 0.000000 1.000000
vt 0.000000 0.000000
vt 1.000000 0.000000
vt 0.000000 1.000000
vt 0.000000 0.000000
vt 1.000000 0.000000
vt 0.000000 1.000000
vt 0.000000 0.000000
vt 1.000000 0.000000
vt 0.000000 1.000000
vt 0.000000 0.000000
vt 1.000000 1.000000
vt 1.000000 1.000000
vt 1.000000 1.000000
vt 1.000000 1.000000
vt 1.000000 1.000000
vn -1.0000 0.0000 0.0000
vn 0.0000 0.0000 -1.0000
vn 1.0000 0.0000 0.0000
vn 0.0000 0.0000 1.0000
vn 0.0000 -1.0000 0.0000
vn 0.0000 1.0000 0.0000
g Cube_Cube.001_wood_jpg
usemtl wood_jpg
s off
f 10/21/7 11/22/7 9/23/7
f 12/24/8 15/25/8 11/26/8
f 16/27/9 13/28/9 15/29/9
f 14/30/10 9/31/10 13/32/10
f 15/33/11 9/31/11 11/26/11
f 12/24/12 14/34/12 16/35/12
f 10/21/7 12/36/7 11/22/7
f 12/24/8 16/37/8 15/25/8
f 16/27/9 14/38/9 13/28/9
f 14/30/10 10/39/10 9/31/10
f 15/33/11 13/40/11 9/31/11
f 12/24/12 10/39/12 14/34/12
o Cube_002_Cube.003
v -1.012357 -3.240024 -1.079470
v -1.012357 -1.240024 -1.079470
v -1.012357 -3.240024 -1.339990
v -1.012357 -1.240024 -1.339990
v -0.771337 -3.240024 -1.079470
v -0.771337 -1.240024 -1.079470
v -0.771337 -3.240024 -1.339990
v -0.771337 -1.240024 -1.339990
vt 1.000000 0.000000
vt 0.000000 1.000000
vt 0.000000 0.000000
vt 1.000000 0.000000
vt 0.000000 1.000000
vt 0.000000 0.000000
vt 1.000000 0.000000
vt 0.000000 1.000000
vt 0.000000 0.000000
vt 1.000000 0.000000
vt 0.000000 1.000000
vt 0.000000 0.000000
vt 1.000000 0.000000
vt 0.000000 1.000000
vt 0.000000 0.000000
vt 1.000000 1.000000
vt 1.000000 1.000000
vt 1.000000 1.000000
vt 1.000000 1.000000
vt 1.000000 1.000000
vn -1.0000 0.0000 0.0000
vn 0.0000 0.0000 -1.0000
vn 1.0000 0.0000 0.0000
vn 0.0000 0.0000 1.0000
vn 0.0000 -1.0000 0.0000
vn 0.0000 1.0000 0.0000
g Cube_002_Cube.003_wood_jpg
usemtl wood_jpg
s off
f 18/41/13 19/42/13 17/43/13
f 20/44/14 23/45/14 19/46/14
f 24/47/15 21/48/15 23/49/15
f 22/50/16 17/51/16 21/52/16
f 23/53/17 17/51/17 19/46/17
f 20/44/18 22/54/18 24/55/18
f 18/41/13 20/56/13 19/42/13
f 20/44/14 24/57/14 23/45/14
f 24/47/15 22/58/15 21/48/15
f 22/50/16 18/59/16 17/51/16
f 23/53/17 21/60/17 17/51/17
f 20/44/18 18/59/18 22/54/18
o Cube_003_Cube.004
v 0.673162 -3.250991 2.233768
v 0.673162 -1.250991 2.233768
v 0.673162 -3.250991 1.973248
v 0.673162 -1.250991 1.973248
v 0.914183 -3.250991 2.233768
v 0.914183 -1.250991 2.233768
v 0.914183 -3.250991 1.973248
v 0.914183 -1.250991 1.973248
vt 1.000000 0.000000
vt 0.000000 1.000000
vt 0.000000 0.000000
vt 1.000000 0.000000
vt 0.000000 1.000000
vt 0.000000 0.000000
vt 1.000000 0.000000
vt 0.000000 1.000000
vt 0.000000 0.000000
vt 1.000000 0.000000
vt 0.000000 1.000000
vt 0.000000 0.000000
vt 1.000000 0.000000
vt 0.000000 1.000000
vt 0.000000 0.000000
vt 1.000000 1.000000
vt 1.000000 1.000000
vt 1.000000 1.000000
vt 1.000000 1.000000
vt 1.000000 1.000000
vn -1.0000 0.0000 0.0000
vn 0.0000 0.0000 -1.0000
vn 1.0000 0.0000 0.0000
vn 0.0000 0.0000 1.0000
vn 0.0000 -1.0000 0.0000
vn 0.0000 1.0000 0.0000
g Cube_003_Cube.004_wood_jpg
usemtl wood_jpg
s off
f 26/61/19 27/62/19 25/63/19
f 28/64/20 31/65/20 27/66/20
f 32/67/21 29/68/21 31/69/21
f 30/70/22 25/71/22 29/72/22
f 31/73/23 25/71/23 27/66/23
f 28/64/24 30/74/24 32/75/24
f 26/61/19 28/76/19 27/62/19
f 28/64/20 32/77/20 31/65/20
f 32/67/21 30/78/21 29/68/21
f 30/70/22 26/79/22 25/71/22
f 31/73/23 29/80/23 25/71/23
f 28/64/24 26/79/24 30/74/24
o Cube_004_Cube.005
v -1.057119 -3.273910 2.203883
v -1.057119 -1.273910 2.203883
v -1.057119 -3.273910 1.943363
v -1.057119 -1.273910 1.943363
v -0.816099 -3.273910 2.203883
v -0.816099 -1.273910 2.203883
v -0.816099 -3.273910 1.943363
v -0.816099 -1.273910 1.943363
vt 1.000000 0.000000
vt 0.000000 1.000000
vt 0.000000 0.000000
vt 1.000000 0.000000
vt 0.000000 1.000000
vt 0.000000 0.000000
vt 1.000000 0.000000
vt 0.000000 1.000000
vt 0.000000 0.000000
vt 1.000000 0.000000
vt 0.000000 1.000000
vt 0.000000 0.000000
vt 1.000000 0.000000
vt 0.000000 1.000000
vt 0.000000 0.000000
vt 1.000000 1.000000
vt 1.000000 1.000000
vt 1.000000 1.000000
vt 1.000000 1.000000
vt 1.000000 1.000000
vn -1.0000 0.0000 0.0000
vn 0.0000 0.0000 -1.0000
vn 1.0000 0.0000 0.0000
vn 0.0000 0.0000 1.0000
vn 0.0000 -1.0000 0.0000
vn 0.0000 1.0000 0.0000
g Cube_004_Cube.005_wood_jpg
usemtl wood_jpg
s off
f 34/81/25 35/82/25 33/83/25
f 36/84/26 39/85/26 35/86/26
f 40/87/27 37/88/27 39/89/27
f 38/90/28 33/91/28 37/92/28
f 39/93/29 33/91/29 35/86/29
f 36/84/30 38/94/30 40/95/30
f 34/81/25 36/96/25 35/82/25
f 36/84/26 40/97/26 39/85/26
f 40/87/27 38/98/27 37/88/27
f 38/90/28 34/99/28 33/91/28
f 39/93/29 37/100/29 33/91/29
f 36/84/30 34/99/30 38/94/30
